<svg width="749" height="94" viewBox="0 0 749 94" fill="none" xmlns="http://www.w3.org/2000/svg">
<rect x="655.375" width="93.625" height="93.625" fill="#098743"/>
<path d="M684.681 73.282V23.3486H718.328V32.0528H695.239V43.951H716.597V52.6552H695.239V64.5778H718.425V73.282H684.681Z" fill="white"/>
<rect x="561.75" width="93.625" height="93.625" fill="#049648"/>
<path d="M597.187 24.6989L606.799 40.9436H607.172L616.83 24.6989H628.211L613.665 48.5307L628.536 72.3625H616.946L607.172 56.0945H606.799L597.024 72.3625H585.481L600.399 48.5307L585.76 24.6989H597.187Z" fill="white"/>
<rect x="468.125" width="93.625" height="93.625" fill="#00A651"/>
<path d="M523.554 24.6989H533.631V55.6523C533.631 59.1278 532.801 62.1688 531.141 64.7754C529.497 67.382 527.193 69.4146 524.229 70.873C521.266 72.316 517.813 73.0374 513.872 73.0374C509.916 73.0374 506.456 72.316 503.493 70.873C500.529 69.4146 498.225 67.382 496.58 64.7754C494.936 62.1688 494.113 59.1278 494.113 55.6523V24.6989H504.191V54.7912C504.191 56.6065 504.586 58.2201 505.378 59.632C506.185 61.0439 507.317 62.1533 508.776 62.9601C510.234 63.7669 511.933 64.1703 513.872 64.1703C515.827 64.1703 517.526 63.7669 518.969 62.9601C520.428 62.1533 521.553 61.0439 522.344 59.632C523.151 58.2201 523.554 56.6065 523.554 54.7912V24.6989Z" fill="white"/>
<rect x="374.5" width="93.625" height="93.625" fill="#58BB68"/>
<path d="M406.73 72.3625V24.6989H416.807V64.0539H437.241V72.3625H406.73Z" fill="white"/>
<rect x="280.875" width="93.625" height="93.625" fill="#13A8D5"/>
<path d="M323.76 72.3625H306.863V24.6989H323.899C328.694 24.6989 332.821 25.6531 336.281 27.5615C339.741 29.4544 342.402 32.1773 344.264 35.7304C346.141 39.2834 347.08 43.5347 347.08 48.4841C347.08 53.4491 346.141 57.7159 344.264 61.2844C342.402 64.853 339.725 67.5915 336.234 69.4999C332.759 71.4083 328.601 72.3625 323.76 72.3625ZM316.941 63.7281H323.341C326.32 63.7281 328.826 63.2006 330.858 62.1455C332.906 61.075 334.442 59.4226 335.466 57.1883C336.506 54.9386 337.026 52.0372 337.026 48.4841C337.026 44.9621 336.506 42.084 335.466 39.8498C334.442 37.6155 332.914 35.9709 330.881 34.9158C328.849 33.8608 326.343 33.3332 323.364 33.3332H316.941V63.7281Z" fill="white"/>
<rect x="187.25" width="93.625" height="93.625" fill="#445DBE"/>
<path d="M216.359 72.3625V24.6989H235.164C238.764 24.6989 241.836 25.3428 244.38 26.6305C246.94 27.9028 248.888 29.7104 250.222 32.0532C251.572 34.3805 252.247 37.119 252.247 40.2687C252.247 43.4338 251.564 46.1568 250.199 48.4376C248.833 50.7029 246.855 52.4406 244.264 53.6508C241.688 54.861 238.57 55.4661 234.908 55.4661H222.317V47.367H233.279C235.203 47.367 236.801 47.1033 238.073 46.5757C239.346 46.0482 240.292 45.2569 240.913 44.2019C241.549 43.1468 241.867 41.8357 241.867 40.2687C241.867 38.6861 241.549 37.3518 240.913 36.2657C240.292 35.1796 239.338 34.3573 238.05 33.7987C236.778 33.2246 235.172 32.9376 233.232 32.9376H226.437V72.3625H216.359ZM242.1 50.6718L253.946 72.3625H242.821L231.231 50.6718H242.1Z" fill="white"/>
<rect x="93.625" width="93.625" height="93.625" fill="#3039A2"/>
<path d="M162.576 48.3153C162.576 53.7605 161.544 58.393 159.479 62.2127C157.431 66.0325 154.636 68.9502 151.092 70.9657C147.565 72.965 143.599 73.9646 139.194 73.9646C134.757 73.9646 130.774 72.9569 127.247 70.9413C123.72 68.9258 120.932 66.0081 118.884 62.1884C116.836 58.3686 115.812 53.7442 115.812 48.3153C115.812 42.8701 116.836 38.2376 118.884 34.4178C120.932 30.5981 123.72 27.6885 127.247 25.6892C130.774 23.6737 134.757 22.6659 139.194 22.6659C143.599 22.6659 147.565 23.6737 151.092 25.6892C154.636 27.6885 157.431 30.5981 159.479 34.4178C161.544 38.2376 162.576 42.8701 162.576 48.3153ZM151.872 48.3153C151.872 44.7881 151.344 41.8135 150.288 39.3917C149.247 36.9698 147.776 35.133 145.875 33.8814C143.973 32.6298 141.746 32.0041 139.194 32.0041C136.642 32.0041 134.415 32.6298 132.513 33.8814C130.612 35.133 129.133 36.9698 128.076 39.3917C127.036 41.8135 126.516 44.7881 126.516 48.3153C126.516 51.8425 127.036 54.817 128.076 57.2389C129.133 59.6608 130.612 61.4976 132.513 62.7491C134.415 64.0007 136.642 64.6265 139.194 64.6265C141.746 64.6265 143.973 64.0007 145.875 62.7491C147.776 61.4976 149.247 59.6608 150.288 57.2389C151.344 54.817 151.872 51.8425 151.872 48.3153Z" fill="white"/>
<rect width="93.625" height="93.625" fill="#34357D"/>
<path d="M27.3549 72.3625L13.7168 24.6989H24.725L32.6146 57.8167H33.0103L41.7145 24.6989H51.1402L59.8211 57.8865H60.24L68.1296 24.6989H79.1379L65.4998 72.3625H55.6784L46.6019 41.1996H46.2295L37.1762 72.3625H27.3549Z" fill="white"/>
</svg>
