<svg width="240" height="30" viewBox="0 0 240 30" fill="none" xmlns="http://www.w3.org/2000/svg">
<rect x="210" width="30" height="30" fill="#098743"/>
<path d="M219.391 23V7H230.172V9.78906H222.773V13.6016H229.617V16.3906H222.773V20.2109H230.203V23H219.391Z" fill="white"/>
<rect x="180" width="30" height="30" fill="#049648"/>
<path d="M191.355 7.72727L194.435 12.9325H194.554L197.649 7.72727H201.296L196.635 15.3636L201.4 23H197.686L194.554 17.7873H194.435L191.303 23H187.604L192.384 15.3636L187.694 7.72727H191.355Z" fill="white"/>
<rect x="150" width="30" height="30" fill="#00A651"/>
<path d="M167.761 7.72727H170.99V17.6456C170.99 18.7592 170.724 19.7337 170.192 20.5689C169.665 21.4041 168.927 22.0554 167.977 22.5227C167.028 22.9851 165.922 23.2163 164.659 23.2163C163.391 23.2163 162.282 22.9851 161.333 22.5227C160.383 22.0554 159.645 21.4041 159.118 20.5689C158.591 19.7337 158.327 18.7592 158.327 17.6456V7.72727H161.556V17.3697C161.556 17.9513 161.683 18.4684 161.937 18.9208C162.195 19.3732 162.558 19.7287 163.026 19.9872C163.493 20.2457 164.037 20.375 164.659 20.375C165.285 20.375 165.83 20.2457 166.292 19.9872C166.759 19.7287 167.12 19.3732 167.373 18.9208C167.632 18.4684 167.761 17.9513 167.761 17.3697V7.72727Z" fill="white"/>
<rect x="120" width="30" height="30" fill="#58BB68"/>
<path d="M130.327 23V7.72727H133.556V20.3377H140.104V23H130.327Z" fill="white"/>
<rect x="90" width="30" height="30" fill="#13A8D5"/>
<path d="M103.741 23H98.3274V7.72727H103.786C105.322 7.72727 106.645 8.03303 107.754 8.64453C108.862 9.25106 109.715 10.1236 110.311 11.2621C110.913 12.4006 111.214 13.7628 111.214 15.3487C111.214 16.9396 110.913 18.3068 110.311 19.4503C109.715 20.5937 108.857 21.4712 107.739 22.0827C106.625 22.6942 105.293 23 103.741 23ZM101.556 20.2333H103.607C104.562 20.2333 105.365 20.0643 106.016 19.7262C106.672 19.3832 107.164 18.8537 107.493 18.1378C107.826 17.4169 107.992 16.4872 107.992 15.3487C107.992 14.2202 107.826 13.2979 107.493 12.582C107.164 11.8661 106.675 11.3391 106.023 11.0011C105.372 10.663 104.569 10.494 103.615 10.494H101.556V20.2333Z" fill="white"/>
<rect x="60" width="30" height="30" fill="#445DBE"/>
<path d="M69.3274 23V7.72727H75.353C76.5064 7.72727 77.4908 7.93359 78.3061 8.34624C79.1264 8.75391 79.7504 9.3331 80.1779 10.0838C80.6104 10.8295 80.8267 11.707 80.8267 12.7163C80.8267 13.7305 80.608 14.603 80.1705 15.3338C79.733 16.0597 79.0991 16.6165 78.2688 17.0043C77.4435 17.392 76.4442 17.5859 75.271 17.5859H71.2365V14.9908H74.7489C75.3654 14.9908 75.8775 14.9062 76.2852 14.7372C76.6928 14.5682 76.9961 14.3146 77.195 13.9766C77.3988 13.6385 77.5007 13.2184 77.5007 12.7163C77.5007 12.2092 77.3988 11.7816 77.195 11.4336C76.9961 11.0856 76.6903 10.8221 76.2777 10.6431C75.87 10.4592 75.3555 10.3672 74.734 10.3672H72.5565V23H69.3274ZM77.5753 16.0497L81.3711 23H77.8065L74.0927 16.0497H77.5753Z" fill="white"/>
<rect x="30" width="30" height="30" fill="#3039A2"/>
<path d="M52.0938 15C52.0938 16.7448 51.763 18.2292 51.1016 19.4531C50.4453 20.6771 49.5495 21.612 48.4141 22.2578C47.2839 22.8984 46.013 23.2187 44.6016 23.2187C43.1797 23.2187 41.9036 22.8958 40.7734 22.25C39.6432 21.6042 38.75 20.6693 38.0938 19.4453C37.4375 18.2214 37.1094 16.7396 37.1094 15C37.1094 13.2552 37.4375 11.7708 38.0938 10.5469C38.75 9.32292 39.6432 8.39062 40.7734 7.75C41.9036 7.10417 43.1797 6.78125 44.6016 6.78125C46.013 6.78125 47.2839 7.10417 48.4141 7.75C49.5495 8.39062 50.4453 9.32292 51.1016 10.5469C51.763 11.7708 52.0938 13.2552 52.0938 15ZM48.6641 15C48.6641 13.8698 48.4948 12.9167 48.1562 12.1406C47.8229 11.3646 47.3516 10.776 46.7422 10.375C46.1328 9.97396 45.4193 9.77344 44.6016 9.77344C43.7839 9.77344 43.0703 9.97396 42.4609 10.375C41.8516 10.776 41.3776 11.3646 41.0391 12.1406C40.7057 12.9167 40.5391 13.8698 40.5391 15C40.5391 16.1302 40.7057 17.0833 41.0391 17.8594C41.3776 18.6354 41.8516 19.224 42.4609 19.625C43.0703 20.026 43.7839 20.2266 44.6016 20.2266C45.4193 20.2266 46.1328 20.026 46.7422 19.625C47.3516 19.224 47.8229 18.6354 48.1562 17.8594C48.4948 17.0833 48.6641 16.1302 48.6641 15Z" fill="white"/>
<rect width="30" height="30" fill="#34357D"/>
<path d="M8.76527 23L4.39524 7.72727H7.92259L10.4506 18.3391H10.5774L13.3665 7.72727H16.3867L19.1683 18.3615H19.3026L21.8306 7.72727H25.358L20.9879 23H17.8409L14.9325 13.0146H14.8132L11.9123 23H8.76527Z" fill="white"/>
</svg>
