<svg width="81" height="81" viewBox="0 0 81 81" fill="none" xmlns="http://www.w3.org/2000/svg">
<circle cx="40.5" cy="40.5" r="40.5" fill="#F17171" fill-opacity="0.2"/>
<circle cx="40.2902" cy="40.2902" r="31.6865" stroke="#F17171" stroke-width="2.93782"/>
<circle cx="45.5362" cy="35.6244" r="8.18394" fill="#F45E5E"/>
<path fill-rule="evenodd" clip-rule="evenodd" d="M32.4856 31.7329C32.3975 31.7319 32.3089 31.7314 32.2199 31.7314C30.1054 31.7314 28.0571 32.0122 26.0748 32.5738C24.1255 33.1024 22.4406 33.9119 21.02 35.0021L23.4483 39.5118C24.4394 38.6859 25.6453 38.0416 27.0659 37.5791C28.5196 37.1166 29.9898 36.8853 31.4765 36.8853C31.4769 36.8853 31.4772 36.8853 31.4776 36.8853C31.4769 36.8312 31.4766 36.777 31.4766 36.7228C31.4766 34.9526 31.8359 33.2663 32.4856 31.7329ZM33.136 43.0304H31.2287C28.5527 43.0304 26.4052 43.3773 24.7863 44.0711C23.1674 44.7649 21.9946 45.7065 21.2678 46.8958C20.574 48.0852 20.2271 49.4233 20.2271 50.91C20.2271 52.4297 20.6235 53.8008 21.4164 55.0232C22.2424 56.2126 23.3987 57.1542 24.8854 57.848C26.3721 58.5087 28.1066 58.8391 30.0889 58.8391C32.4346 58.8391 34.3674 58.4096 35.8871 57.5506C36.957 56.9588 37.7995 56.2022 38.4145 55.281V58.4922H44.2623V49.5233C42.0146 49.5208 39.9026 48.9389 38.0676 47.919V50.2162C37.539 51.5707 36.6635 52.5949 35.4411 53.2887C34.2517 53.9825 32.8972 54.3294 31.3774 54.3294C29.7916 54.3294 28.5527 53.999 27.6606 53.3383C26.7686 52.6775 26.3226 51.7855 26.3226 50.6622C26.3226 49.6711 26.686 48.8451 27.4128 48.1843C28.1397 47.4905 29.5603 47.1436 31.6748 47.1436H36.8417C35.3273 46.0611 34.0587 44.6567 33.136 43.0304Z" fill="#F17171"/>
<path d="M39.1089 30.1403L48.8763 20.3879C49.761 19.5045 51.1072 19.5045 51.9906 20.3879L61.4504 29.8332C62.3351 30.7165 62.3351 32.0987 61.4504 32.982L51.683 42.7344C48.2217 46.1904 42.6084 46.1904 39.1089 42.7344C35.6476 39.2785 35.6476 33.5951 39.1089 30.1403ZM50.1068 41.1594L40.6864 31.7141C38.0716 34.3248 38.0716 38.5487 40.6864 41.1594C43.3011 43.7701 47.4921 43.7701 50.1068 41.1594Z" fill="#F17171"/>
</svg>
