<svg width="81" height="82" viewBox="0 0 81 82" fill="none" xmlns="http://www.w3.org/2000/svg">
<ellipse cx="40.5" cy="41" rx="40.5" ry="41" fill="#86BBE9" fill-opacity="0.2"/>
<path d="M71.9523 40.7876C71.9523 58.5176 57.7594 72.8592 40.29 72.8592C22.8206 72.8592 8.62764 58.5176 8.62764 40.7876C8.62764 23.0576 22.8206 8.71593 40.29 8.71593C57.7594 8.71593 71.9523 23.0576 71.9523 40.7876Z" stroke="#86BBE9" stroke-width="2.98624"/>
<path d="M18.796 42.885C18.2921 42.1457 17.9098 41.5302 17.6533 41.0992C17.6556 41.0951 17.6579 41.0909 17.6602 41.0867C17.9178 40.6244 18.306 39.9571 18.8201 39.1532C19.8503 37.5424 21.3765 35.3988 23.3603 33.2611C27.3566 28.9548 33.0277 24.861 40.1069 24.861C47.1917 24.861 52.9565 28.9602 57.0478 33.273C59.078 35.4132 60.6501 37.5591 61.7144 39.1713C62.2425 39.9711 62.6431 40.636 62.9106 41.0985C62.6444 41.5291 62.2522 42.1379 61.7394 42.8668C60.6776 44.3758 59.1084 46.3858 57.081 48.3911C53.002 52.4257 47.228 56.2893 40.1069 56.2893C32.9909 56.2893 27.311 52.4304 23.3275 48.4027C21.3467 46.3999 19.8235 44.3924 18.796 42.885Z" stroke="#86BBE9" stroke-width="2.98624"/>
<path d="M42.6125 45.6425V43.2677L42.4586 42.762V38.6061C42.4586 37.7999 42.2167 37.1769 41.733 36.7371C41.2492 36.2827 40.5163 36.0555 39.5341 36.0555C38.8744 36.0555 38.2221 36.1581 37.5771 36.3633C36.9468 36.5685 36.4117 36.8544 35.972 37.2209L34.8945 35.2199C35.5249 34.7361 36.2725 34.377 37.1373 34.1425C38.0169 33.8932 38.9258 33.7686 39.8639 33.7686C41.5644 33.7686 42.8764 34.1791 43.7999 35C44.7381 35.8063 45.2072 37.0596 45.2072 38.7601V45.6425H42.6125ZM38.9184 45.7964C38.0389 45.7964 37.2693 45.6498 36.6096 45.3566C35.95 45.0488 35.4369 44.631 35.0704 44.1033C34.7186 43.5609 34.5427 42.9525 34.5427 42.2782C34.5427 41.6186 34.6966 41.0249 35.0045 40.4972C35.327 39.9694 35.8474 39.5516 36.5656 39.2438C37.2839 38.936 38.2368 38.782 39.4242 38.782H42.8324V40.6071H39.6221C38.6839 40.6071 38.0535 40.761 37.731 41.0689C37.4085 41.362 37.2473 41.7285 37.2473 42.1683C37.2473 42.6667 37.4452 43.0625 37.841 43.3557C38.2368 43.6489 38.7865 43.7954 39.4901 43.7954C40.1644 43.7954 40.7655 43.6415 41.2932 43.3337C41.8356 43.0258 42.224 42.5714 42.4586 41.9704L42.9203 43.6195C42.6565 44.3085 42.1801 44.8436 41.4911 45.2247C40.8168 45.6058 39.9592 45.7964 38.9184 45.7964Z" fill="#A7BAFF"/>
</svg>
